<svg xmlns="http://www.w3.org/2000/svg" style="display:none">
  <symbol id="icon-sun" viewBox="0 0 16 16">
    <circle cx="8" cy="8" r="3.5" stroke="currentColor" stroke-width="1.5" fill="none"/>
    <line x1="8" y1="1" x2="8" y2="3" stroke="currentColor" stroke-width="1.5" stroke-linecap="round"/>
    <line x1="8" y1="13" x2="8" y2="15" stroke="currentColor" stroke-width="1.5" stroke-linecap="round"/>
    <line x1="1" y1="8" x2="3" y2="8" stroke="currentColor" stroke-width="1.5" stroke-linecap="round"/>
    <line x1="13" y1="8" x2="15" y2="8" stroke="currentColor" stroke-width="1.5" stroke-linecap="round"/>
    <line x1="3.05" y1="3.05" x2="4.46" y2="4.46" stroke="currentColor" stroke-width="1.5" stroke-linecap="round"/>
    <line x1="11.54" y1="11.54" x2="12.95" y2="12.95" stroke="currentColor" stroke-width="1.5" stroke-linecap="round"/>
    <line x1="12.95" y1="3.05" x2="11.54" y2="4.46" stroke="currentColor" stroke-width="1.5" stroke-linecap="round"/>
    <line x1="4.46" y1="11.54" x2="3.05" y2="12.95" stroke="currentColor" stroke-width="1.5" stroke-linecap="round"/>
  </symbol>
  <symbol id="icon-moon" viewBox="0 0 16 16">
    <path d="M13.5 9.5A6 6 0 0 1 6.5 2.5a6 6 0 1 0 7 7z" stroke="currentColor" stroke-width="1.5" fill="none" stroke-linejoin="round"/>
  </symbol>
  <symbol id="icon-copy" viewBox="0 0 16 16">
    <rect x="5" y="5" width="8" height="9" rx="1" stroke="currentColor" stroke-width="1.5" fill="none"/>
    <path d="M3 11V3a1 1 0 0 1 1-1h8" stroke="currentColor" stroke-width="1.5" stroke-linecap="round" fill="none"/>
  </symbol>
  <symbol id="icon-check" viewBox="0 0 16 16">
    <path d="M3 8l3.5 3.5L13 5" stroke="currentColor" stroke-width="2" stroke-linecap="round" stroke-linejoin="round" fill="none"/>
  </symbol>
  <symbol id="icon-x" viewBox="0 0 16 16">
    <path d="M4 4l8 8M12 4l-8 8" stroke="currentColor" stroke-width="2" stroke-linecap="round" stroke-linejoin="round" fill="none"/>
  </symbol>
  <symbol id="icon-shield" viewBox="0 0 16 16">
    <path d="M8 2L3 4.5v4C3 11.5 5.5 14 8 15c2.5-1 5-3.5 5-6.5v-4L8 2z" stroke="currentColor" stroke-width="1.5" fill="none" stroke-linejoin="round"/>
  </symbol>
  <symbol id="icon-chevron-down" viewBox="0 0 16 16">
    <path d="M4 6l4 4 4-4" stroke="currentColor" stroke-width="1.5" stroke-linecap="round" stroke-linejoin="round" fill="none"/>
  </symbol>
  <symbol id="icon-external" viewBox="0 0 16 16">
    <path d="M7 3H3a1 1 0 0 0-1 1v9a1 1 0 0 0 1 1h9a1 1 0 0 0 1-1V9" stroke="currentColor" stroke-width="1.5" stroke-linecap="round" fill="none"/>
    <path d="M10 2h4v4M14 2L8 8" stroke="currentColor" stroke-width="1.5" stroke-linecap="round" stroke-linejoin="round" fill="none"/>
  </symbol>
  <symbol id="icon-search" viewBox="0 0 16 16">
    <circle cx="6.5" cy="6.5" r="4" stroke="currentColor" stroke-width="1.5" fill="none"/>
    <line x1="10" y1="10" x2="14" y2="14" stroke="currentColor" stroke-width="1.5" stroke-linecap="round"/>
  </symbol>
  <symbol id="icon-lock" viewBox="0 0 16 16">
    <rect x="3.5" y="7" width="9" height="7" rx="1" stroke="currentColor" stroke-width="1.5" fill="none"/>
    <path d="M5.5 7V4.5a2.5 2.5 0 0 1 5 0V7" stroke="currentColor" stroke-width="1.5" fill="none"/>
  </symbol>
  <symbol id="icon-exchange" viewBox="0 0 16 16">
    <path d="M3 5h9M9 2l3 3-3 3" stroke="currentColor" stroke-width="1.5" fill="none" stroke-linecap="round" stroke-linejoin="round"/>
    <path d="M13 11H4M7 14l-3-3 3-3" stroke="currentColor" stroke-width="1.5" fill="none" stroke-linecap="round" stroke-linejoin="round"/>
  </symbol>
  <symbol id="icon-plane" viewBox="0 0 16 16">
    <path d="M2 9l12-6-3 12-3-5-6-1z" stroke="currentColor" stroke-width="1.5" fill="none" stroke-linejoin="round"/>
  </symbol>
  <symbol id="icon-info" viewBox="0 0 16 16">
    <circle cx="8" cy="8" r="6.25" stroke="currentColor" stroke-width="1.5" fill="none"/>
    <line x1="8" y1="7" x2="8" y2="11.5" stroke="currentColor" stroke-width="1.5" stroke-linecap="round"/>
    <circle cx="8" cy="4.5" r="0.6" fill="currentColor"/>
  </symbol>
  <symbol id="icon-alert" viewBox="0 0 16 16">
    <path d="M8 2l6.5 11.5h-13L8 2z" stroke="currentColor" stroke-width="1.5" fill="none" stroke-linejoin="round"/>
    <line x1="8" y1="6.5" x2="8" y2="10" stroke="currentColor" stroke-width="1.5" stroke-linecap="round"/>
    <circle cx="8" cy="12" r="0.6" fill="currentColor"/>
  </symbol>
</svg>
